<svg width="35" height="35" viewBox="0 0 35 35" fill="none" xmlns="http://www.w3.org/2000/svg">
<path opacity="0.4" d="M17.1325 21.3675L11.41 27.09C10.78 26.53 10.1675 25.9525 9.5725 25.3575C7.77 23.5375 6.1425 21.63 4.69 19.635C3.255 17.64 2.1 15.645 1.26 13.6675C0.42 11.6725 0 9.765 0 7.945C0 6.755 0.21 5.6175 0.63 4.5675C1.05 3.5 1.715 2.52 2.6425 1.645C3.7625 0.5425 4.9875 0 6.2825 0C6.7725 0 7.2625 0.105 7.7 0.315C8.155 0.525 8.5575 0.84 8.8725 1.295L12.9325 7.0175C13.2475 7.455 13.475 7.8575 13.6325 8.2425C13.79 8.61 13.8775 8.9775 13.8775 9.31C13.8775 9.73 13.755 10.15 13.51 10.5525C13.2825 10.955 12.95 11.375 12.53 11.795L11.2 13.1775C11.0075 13.37 10.92 13.5975 10.92 13.8775C10.92 14.0175 10.9375 14.14 10.9725 14.28C11.025 14.42 11.0775 14.525 11.1125 14.63C11.4275 15.2075 11.97 15.96 12.74 16.87C13.5275 17.78 14.3675 18.7075 15.2775 19.635C15.9075 20.2475 16.52 20.8425 17.1325 21.3675Z" fill="#16171A"/>
<path d="M34.9475 28.5773C34.9475 29.0673 34.86 29.5748 34.685 30.0648C34.6325 30.2048 34.58 30.3448 34.51 30.4848C34.2125 31.1148 33.8275 31.7098 33.32 32.2698C32.4625 33.2148 31.5175 33.8973 30.45 34.3348C30.4325 34.3348 30.415 34.3523 30.3975 34.3523C29.365 34.7723 28.245 34.9998 27.0375 34.9998C25.2525 34.9998 23.345 34.5798 21.3325 33.7223C19.32 32.8648 17.3075 31.7098 15.3125 30.2573C14.63 29.7498 13.9475 29.2423 13.3 28.6998L19.0225 22.9773C19.5125 23.3448 19.95 23.6248 20.3175 23.8173C20.405 23.8523 20.51 23.9048 20.6325 23.9573C20.7725 24.0098 20.9125 24.0273 21.07 24.0273C21.3675 24.0273 21.595 23.9223 21.7875 23.7298L23.1175 22.4173C23.555 21.9798 23.975 21.6473 24.3775 21.4373C24.78 21.1923 25.1825 21.0698 25.62 21.0698C25.9525 21.0698 26.3025 21.1398 26.6875 21.2973C27.0725 21.4548 27.475 21.6823 27.9125 21.9798L33.705 26.0923C34.16 26.4073 34.475 26.7748 34.6675 27.2123C34.8425 27.6498 34.9475 28.0873 34.9475 28.5773Z" fill="#16171A"/>
</svg>
