<svg viewBox="0 0 36 36" xmlns="http://www.w3.org/2000/svg" preserveAspectRatio="xMidYMid meet">
<path d="M0 8.49136L8.49233 8.49136L8.49233 0L0 0L0 8.49136ZM13.6218 8.49136L22.1141 8.49136L22.1141 0L13.6218 0L13.6218 8.49136ZM35.7349 8.49136L27.2436 8.49136L27.2436 0L35.7349 0L35.7349 8.49136ZM8.49233 22.2466L0 22.2466L0 13.7543L8.49233 13.7543L8.49233 22.2466ZM35.7349 22.2466L27.2436 22.2466L27.2436 13.7543L35.7349 13.7543L35.7349 22.2466ZM13.6218 22.2466L22.1131 22.2466L22.1131 13.7553L13.6218 13.7553L13.6218 22.2466ZM0 36L8.49233 36L8.49233 27.5086L0 27.5086L0 36ZM22.1141 36L13.6218 36L13.6218 27.5086L22.1141 27.5086L22.1141 36ZM27.2436 36L35.7349 36L35.7349 27.5086L27.2436 27.5086L27.2436 36Z" id="Combined-Shape" fill="#023646" fill-rule="evenodd" stroke="none" />
</svg>