<svg xmlns="http://www.w3.org/2000/svg" viewBox="-1 -1 21 29" preserveAspectRatio="xMidYMid meet"><defs><style>.cls-picto-location{fill:none;stroke:#023646;stroke-linejoin:round;stroke-width:1.2px;}</style></defs><title>job_picto_location</title><g id="Calque_2" data-name="Calque 2"><g id="Calque_1-2" data-name="Calque 1"><g id="UI_Icons_Pictos_Pointeur" data-name="UI/Icons/Pictos/Pointeur"><path id="Path" class="cls-picto-location" d="M9.6.6A9,9,0,0,0,.92,12a8.9,8.9,0,0,0,.76,1.89l.24.42L8.71,26.08a.25.25,0,0,0,0,.07,1,1,0,0,0,1.7,0l0,0,6.8-11.79.24-.42A8.95,8.95,0,0,0,18.6,9.61a9,9,0,0,0-9-9"/><path id="Path-2" data-name="Path" class="cls-picto-location" d="M9.6,13.6a4,4,0,1,1,4-4,4,4,0,0,1-4,4"/></g></g></g></svg>