<svg xmlns="http://www.w3.org/2000/svg" viewBox="0 0 32.32 26" preserveAspectRatio="xMidYMid meet"><defs><style>.cls-picto-twitter{fill:#ffffff;}</style></defs><title>picto_twitter_dark</title><g id="Calque_2" data-name="Calque 2"><g id="Calque_1-2" data-name="Calque 1"><g id="Twitter"><path id="Fill-1" class="cls-picto-twitter" d="M10.16,26A18.64,18.64,0,0,0,29,7.33c0-.29,0-.57,0-.85a13.53,13.53,0,0,0,3.31-3.4,13.5,13.5,0,0,1-3.81,1A6.62,6.62,0,0,0,31.43.48a13.29,13.29,0,0,1-4.21,1.59A6.69,6.69,0,0,0,22.38,0a6.6,6.6,0,0,0-6.63,6.56,6.16,6.16,0,0,0,.17,1.5A18.89,18.89,0,0,1,2.25,1.2,6.52,6.52,0,0,0,4.3,10a6.46,6.46,0,0,1-3-.82v.09a6.57,6.57,0,0,0,5.32,6.43,6.77,6.77,0,0,1-1.75.23,6.46,6.46,0,0,1-1.25-.12,6.63,6.63,0,0,0,6.2,4.56,13.4,13.4,0,0,1-8.24,2.81A13.82,13.82,0,0,1,0,23.05,18.91,18.91,0,0,0,10.16,26"/></g></g></g></svg>