<svg viewBox="0 0 20 28" preserveAspectRatio="xMidYMid meet" fill="none" xmlns="http://www.w3.org/2000/svg">
<path d="M16 17V27L10 23.8486L4 27V17" stroke="#023646" stroke-width="1.2" stroke-linejoin="round"/>
<path fill-rule="evenodd" clip-rule="evenodd" d="M10 19C14.9706 19 19 14.9706 19 10C19 5.02944 14.9706 1 10 1C5.02944 1 1 5.02944 1 10C1 14.9706 5.02944 19 10 19Z" stroke="#023646" stroke-width="1.2" stroke-linejoin="round"/>
<path fill-rule="evenodd" clip-rule="evenodd" d="M10 15C12.7614 15 15 12.7614 15 10C15 7.23858 12.7614 5 10 5C7.23858 5 5 7.23858 5 10C5 12.7614 7.23858 15 10 15Z" stroke="#023646" stroke-width="1.2" stroke-linejoin="round"/>
</svg>
