<svg viewBox="0 0 20 28" preserveAspectRatio="xMidYMid meet" fill="none" xmlns="http://www.w3.org/2000/svg">
<path d="M10.0003 1C5.02888 1 1 5.0337 1 10.0104C1 10.8381 1.11356 11.6392 1.32288 12.4003C1.50396 13.063 1.75778 13.6963 2.07789 14.289C2.15523 14.4319 2.23687 14.5729 2.32127 14.7115L9.10687 26.478C9.1213 26.5032 9.1345 26.5296 9.15046 26.5542C9.33706 26.8239 9.64766 27 9.99969 27C10.3526 27 10.6642 26.8212 10.8505 26.5508L10.8793 26.5004L17.6772 14.7136L17.9227 14.2881C18.2422 13.6957 18.4957 13.0621 18.6777 12.4003C18.8861 11.6392 19 10.8381 19 10.0104C19 5.0337 14.9708 1 10.0003 1" stroke="#023646" stroke-width="1.2" stroke-linejoin="round"/>
<path d="M10.0007 14C7.79097 14 6 12.2091 6 10.0008C6 7.79122 7.79065 6 10.0007 6C12.21 6 14 7.79122 14 10.0008C14 12.2091 12.21 14 10.0007 14" stroke="#023646" stroke-width="1.2" stroke-linejoin="round"/>
</svg>
