<svg viewBox="0 0 32 28" preserveAspectRatio="xMidYMid meet" fill="none" xmlns="http://www.w3.org/2000/svg">
<path fill-rule="evenodd" clip-rule="evenodd" d="M27.6219 4.27369C27.4903 4.14319 27.3522 4.01215 27.2147 3.89133C25.1256 2.00213 22.4141 0.971021 19.6122 1.00062L1 1.16368L1.18142 2.29812C2.01087 7.46496 6.44431 11.2463 11.6191 11.2006L17.9905 11.1446C20.9497 11.1231 23.3686 13.5265 23.4002 16.5195C23.401 16.7678 23.3893 17.0156 23.3651 17.2629C23.3231 17.6375 23.2571 18.0088 23.168 18.3748C22.624 20.6097 21.1976 23.0484 19.5116 24.9263C19.3014 25.1593 19.1847 25.4634 19.1847 25.7787C19.1865 25.9851 19.2395 26.1877 19.3387 26.3683C19.6662 26.9621 20.4075 27.175 20.9946 26.844C23.429 25.4647 27.7145 22.5118 29.7972 17.937V17.934C30.0084 17.4747 30.1933 17.0035 30.3513 16.5227C30.7953 15.1679 31.0142 13.7482 30.9993 12.321C30.9807 9.53256 29.9475 6.84823 28.097 4.78144C27.9459 4.60869 27.7853 4.43648 27.6219 4.27369Z" stroke="#023646" stroke-width="1.2" stroke-linejoin="round"/>
<path d="M22.8513 1C22.8513 1 23.7789 8.89146 21 12" stroke="#023646" stroke-width="1.2" stroke-linejoin="round"/>
<path d="M23 19C23 19 25.4715 20.9104 29 19.4502" stroke="#023646" stroke-width="1.2" stroke-linejoin="round"/>
<path d="M30 8C30 8 29.8648 13.408 24 15" stroke="#023646" stroke-width="1.2" stroke-linecap="round" stroke-linejoin="round"/>
</svg>
