<svg width="307" height="425" viewBox="0 0 307 425" fill="none" xmlns="http://www.w3.org/2000/svg">
<path d="M80.5555 405.286C82.0894 403.743 126.083 350.308 140.407 290.195" stroke="#E30854" stroke-width="2.5"/>
<path d="M54.3704 376.957C55.4057 374.89 118.988 287.522 116.403 215.146C116.403 215.146 114.207 178.184 151.944 176.115C189.679 174.049 190.841 215.146 190.841 215.146C190.841 215.146 196.012 316.471 114.853 424" stroke="#E30854" stroke-width="2.5"/>
<path d="M153.106 210.661C153.106 210.661 155.194 238.088 149.759 252.767" stroke="#E30854" stroke-width="2.5"/>
<path d="M159.111 423.064L196.945 335.836C201.02 326.443 214.829 327.803 216.968 337.81L230.185 399.62" stroke="#E30854" stroke-width="2.5"/>
<path d="M32.8611 343.482C32.8611 342.021 74.1702 301.833 78.0033 220.049C80.5889 164.846 114.786 140.2 150.823 139.565C209.418 138.534 226.491 182.515 229.596 216.566C232.854 252.317 224.552 270.35 256.37 367.858" stroke="#E30854" stroke-width="2.5"/>
<path d="M16.0278 302.359C16.0278 302.359 39.7616 266.631 40.2794 238.15C40.7951 209.671 49.4042 161.949 72.2663 136.659C96.7859 109.54 115.609 104.555 139.342 101.966C158.492 99.8771 199.195 98.8584 240.472 141.837" stroke="#E30854" stroke-width="2.5"/>
<path d="M258.241 176.04C258.241 176.04 270.328 201.993 269.698 250.505C269.441 270.267 277.082 309.097 286.296 324.816" stroke="#E30854" stroke-width="2.5"/>
<path d="M2 215.339C2 215.339 4.06017 120.068 77.75 84.3414" stroke="#E30854" stroke-width="2.5"/>
<path d="M116.093 68.3778C116.093 68.3778 280.652 33.3288 305 213.468" stroke="#E30854" stroke-width="2.5"/>
<path d="M19.7685 83.2956C19.7685 83.2956 132 -32.9433 285.361 84.3415" stroke="#E30854" stroke-width="2.5"/>
<path d="M59.0463 21.1408C59.0463 21.1408 152.465 -24.0581 246.083 24.4568" stroke="#E30854" stroke-width="2.5"/>
</svg>
