<svg width="419" height="305" viewBox="0 0 419 305" fill="none" xmlns="http://www.w3.org/2000/svg">
<path fill-rule="evenodd" clip-rule="evenodd" d="M209.502 237C161.535 237 114.274 219.058 76.4382 186.483C76.4382 186.483 1.9937 121.231 2 119.207C2.0063 117.187 117.295 18.7055 117.295 18.7055C130.244 7.77774 145.71 2 162.027 2C179.644 2 196.284 8.7456 209.532 21.1178C223.012 8.62173 239.522 2 256.98 2C273.288 2 288.762 7.77144 301.711 18.6992C301.711 18.6992 417 117.181 417 119.207C417.006 121.231 342.56 186.483 342.56 186.483C304.732 219.058 257.471 237 209.502 237Z" stroke="#E30854" stroke-width="2.5"/>
<path d="M267.744 105.694C249.072 105.694 231.488 114.845 220.709 130.171L208.806 147.098L196.904 130.176C186.121 114.845 168.537 105.694 149.865 105.694C126.696 105.694 106.688 119.475 97.5933 139.271L97.5996 139.278C123.548 156.687 166.145 181 208.502 181C272.488 181 327.256 136.95 344 121.999C327.241 107.069 272.376 63 208.502 63C144.515 63 89.746 107.048 73 121.999" stroke="#E30854" stroke-width="2.5"/>
<path d="M267.553 105C299.231 105 325 130.755 325 162.416C325 163.499 324.958 164.671 324.867 166.102L324.861 166.187L324.859 166.271C321.962 222.344 256.622 270.033 208.664 303C182.645 285.113 151.505 262.889 128 237.346" stroke="#E30854" stroke-width="2.5"/>
</svg>
