<svg width="418" height="388" viewBox="0 0 418 388" fill="none" xmlns="http://www.w3.org/2000/svg">
<path fill-rule="evenodd" clip-rule="evenodd" d="M255.012 212.173C254.164 217.824 249.367 222.06 243.725 222.06H242.313C238.643 222.06 235.256 220.365 233 217.259C230.742 214.15 230.178 210.478 231.307 206.807L244.852 166.127L209.859 102L175.147 166.127L188.693 206.807C189.821 210.197 189.256 214.15 187 217.259C184.742 220.365 181.356 222.06 177.686 222.06H175.994C170.35 222.06 165.551 217.824 164.705 212.173L158.213 169.234L95 102L146.926 265H273.072L325 102L261.504 169.234L255.012 212.173Z" stroke="#E30854" stroke-width="2.5"/>
<path fill-rule="evenodd" clip-rule="evenodd" d="M209.999 229L219.27 248.093L240 251.155L225 266.016L228.539 287L209.999 277.093L191.46 287L195 266.016L180 251.155L200.729 248.093L209.999 229Z" stroke="#E30854" stroke-width="2.5"/>
<path d="M173 387L151.463 365.31C145.261 359.063 136.972 355.6 128.177 355.6H97.7316C70.2179 355.6 47.8369 333.058 47.8369 305.349V274.686C47.8369 265.829 44.3981 257.481 38.1955 251.236L16.6573 229.545C14.4021 227.275 12.318 224.775 10.5682 222.107C9.61013 220.745 8.76401 219.211 7.91954 217.678C3.97208 210.24 2 202.12 2 194C2 185.88 3.97208 177.761 7.91954 170.322C8.70804 168.789 9.61013 167.313 10.5682 165.893C12.318 163.225 14.4021 160.727 16.6573 158.455L38.1955 136.766C44.3981 130.519 47.8369 122.171 47.8369 113.314V82.6514C47.8369 54.9435 70.2179 32.3999 97.7316 32.3999H128.177C136.861 32.3999 145.374 28.8803 151.463 22.6898L173 1" stroke="#E30854" stroke-width="2.5"/>
<path d="M245 1L266.545 22.6898C272.69 28.8803 281.207 32.3999 289.837 32.3999H320.292C347.815 32.3999 370.204 54.9435 370.204 82.6514V113.314C370.204 122.171 373.644 130.519 379.849 136.766L401.392 158.455C410.81 167.938 416 180.543 416 194C416 207.459 410.81 220.007 401.392 229.545L379.849 251.236C373.588 257.483 370.204 265.829 370.204 274.686V305.349C370.204 333.058 347.815 355.6 320.292 355.6H289.837C281.039 355.6 272.75 359.063 266.545 365.31L245 387" stroke="#E30854" stroke-width="2.5"/>
</svg>
