<svg width="326" height="475" viewBox="0 0 326 475" fill="none" xmlns="http://www.w3.org/2000/svg">
<path d="M164.719 213.846V357.91C164.719 358.145 164.719 358.38 164.715 358.609C164.17 393.021 119.536 405.548 100.376 376.957C97.6714 372.919 95.6319 368.769 95.0043 364.87C89.7658 332.392 73.8829 301.755 48.9963 276.79C14.3249 242.051 -2.58447 193.389 3.07359 144.643C11.3407 70.7808 70.9704 11.2296 144.853 3.03748C151.063 2.34856 157.304 2.00409 163.553 2.00068C203.193 1.88473 241.456 16.5295 270.878 43.0805C305.055 73.6899 324.604 117.386 324.635 163.257C324.734 205.786 307.876 246.6 277.785 276.667C246.977 307.638 229.935 347.259 229.751 388.301V388.318C229.669 408.853 213.37 425.564 192.979 426.301C192.597 426.314 192.211 426.325 191.819 426.325L189.987 426.335L102.289 426.887C96.0207 426.887 90.9424 431.966 90.9424 438.231C90.9424 444.496 96.0207 449.574 102.289 449.574L102.276 449.571L189.974 450.123C196.242 450.123 201.324 455.205 201.324 461.467C201.324 467.732 196.242 472.814 189.974 472.814L126.958 473.237" stroke="#E30854" stroke-width="2.5"/>
<path d="M53.7202 166.801C67.2395 154.741 111.45 119.204 163.099 119.204C214.663 119.204 258.952 154.758 272.482 166.801C258.966 178.864 214.755 214.398 163.099 214.398C128.912 214.398 97.9172 198.768 76.9698 184.723" stroke="#E30854" stroke-width="2.5"/>
<path fill-rule="evenodd" clip-rule="evenodd" d="M187.177 166.801C187.177 179.976 176.495 190.661 163.317 190.661C150.142 190.661 139.46 179.976 139.46 166.801C139.46 153.626 150.142 142.941 163.317 142.941C176.495 142.941 187.177 153.626 187.177 166.801Z" stroke="#E30854" stroke-width="2.5"/>
</svg>
