<svg width="103" height="111" viewBox="0 0 103 111" fill="none" xmlns="http://www.w3.org/2000/svg">
<path d="M58 109.5L44 109.501" stroke="#E20953" stroke-width="2.5" stroke-linecap="round" stroke-linejoin="round"/>
<path d="M36.9316 83.9557C36.8519 83.716 36.7915 83.4782 36.754 83.2453C35.5862 75.9729 32.0405 69.1135 26.4874 63.5239C18.7502 55.7451 14.9762 44.8509 16.2399 33.9375C18.0843 17.3999 31.3909 4.06712 47.8785 2.23313C49.2651 2.0791 50.6585 2.00112 52.0528 2.00015C60.8992 1.97416 69.4376 5.25319 76.0041 11.198C83.6309 18.0516 87.9932 27.8338 87.9999 38.1042C88.021 47.6265 84.2585 56.7646 77.5442 63.4969C70.6697 70.4305 66.8659 79.301 66.8247 88.4911V88.495C66.8064 93.091 63.1696 96.8341 58.6192 96.9987C58.5338 97.0016 38.3815 96.9987 38.3815 96.9987" stroke="#E20953" stroke-width="2.5" stroke-linecap="round" stroke-linejoin="round"/>
<path fill-rule="evenodd" clip-rule="evenodd" d="M51.9994 29.2679C46.6311 29.2679 42.2681 33.6309 42.2681 38.9991C42.2681 44.3682 46.6311 48.7312 51.9994 48.7312C57.3687 48.7312 61.7308 44.3682 61.7308 38.9991C61.7308 33.6309 57.3687 29.2679 51.9994 29.2679Z" stroke="#E20953" stroke-width="2.5" stroke-linecap="round" stroke-linejoin="round"/>
<path d="M42 103.5H61" stroke="#E20953" stroke-width="2.5" stroke-linecap="round" stroke-linejoin="round"/>
</svg>
