<svg width="328" height="506" viewBox="0 0 328 506" fill="none" xmlns="http://www.w3.org/2000/svg">
<path d="M152.21 211.094C134.09 247.376 119.115 287.478 112.353 321.646C110.647 330.221 116.11 338.567 124.539 340.292C132.981 342.024 141.184 336.465 142.873 327.896C145.998 312.158 150.664 295.671 156.628 278.909C163.454 263.075 176.021 266.732 178.679 278.209C179.576 282.083 179.344 286.848 177.381 292.055C176.972 293.005 175.812 295.671 175.668 296.026C158.11 336.086 131.475 375.422 95.1736 415.085C89.3154 421.489 89.6648 431.514 95.9664 437.469C102.258 443.418 112.11 443.06 117.97 436.658C144.825 407.317 166.768 378.002 184.027 348.367C184.167 348.178 184.307 347.96 184.442 347.649C184.509 347.519 184.572 347.418 184.637 347.301C184.9 346.848 185.155 346.399 185.401 345.949C189.715 339.572 197.411 343.283 194.618 350.537C167.749 405.761 132.468 444.961 109.606 466.715C103.331 472.686 103.005 482.71 108.873 489.092C114.753 495.467 124.604 495.8 130.889 489.837C154.122 467.725 189.254 428.902 217.511 374.545C221.517 368.926 229.146 373.031 226.312 379.724C226.283 379.781 226.266 379.832 226.247 379.889C210.55 414.617 190.059 446.766 163.997 477.909C158.426 484.565 159.219 494.563 165.761 500.222C172.311 505.891 182.136 505.09 187.712 498.429C215.866 464.795 237.954 430.054 254.851 392.5C257.897 386.082 265.989 389.901 263.252 397.072C262.912 397.963 262.796 398.238 262.452 399.041C255.017 417.263 246.258 435.458 235.501 455.334C231.363 462.989 234.105 472.615 241.643 476.826C249.181 481.037 258.647 478.242 262.789 470.584C289.029 422.084 304.093 382.98 316.498 331.088C330.492 272.549 327.051 227.854 321.694 200.666C314.267 162.953 298.842 135.802 278.272 124.219C268.553 118.754 258.133 116 247.656 116C239.412 116 231.127 117.698 223.102 121.118C211.415 126.103 196.252 135.694 183.167 155.219" stroke="#E20953" stroke-width="2.5" stroke-linecap="round" stroke-linejoin="round"/>
<path d="M176.187 294.812C194.307 258.533 209.255 218.519 216.016 184.354C217.72 175.78 212.26 167.433 203.828 165.708C195.389 163.974 187.186 169.533 185.494 178.102C182.371 193.842 177.705 210.327 171.739 227.091C162.61 248.27 143.209 234.576 150.985 213.943C151.397 212.995 151.793 212.042 152.21 211.094C152.386 210.702 152.557 210.327 152.701 209.972C170.257 169.915 196.892 130.578 233.196 90.9128C239.052 84.5114 238.702 74.4867 232.403 68.5311C226.109 62.5829 216.26 62.9382 210.399 69.342C183.542 98.6836 161.598 127.998 144.339 157.634C144.202 157.822 144.06 158.043 143.927 158.352C143.86 158.479 143.795 158.582 143.729 158.699C143.469 159.155 143.214 159.601 142.968 160.052C138.654 166.426 130.958 162.717 133.75 155.463C160.62 100.239 195.899 61.0396 218.761 39.2826C225.036 33.3124 225.364 23.2902 219.496 16.9084C213.619 10.5364 203.765 10.1983 197.478 16.1636C174.247 38.2733 139.115 77.0982 110.857 131.455C106.85 137.072 99.2228 132.969 102.057 126.276C102.086 126.217 102.1 126.168 102.122 126.112C117.819 91.3831 138.31 59.234 164.372 28.0943C169.941 21.4356 169.148 11.4379 162.608 5.77879C156.056 0.109887 146.233 0.908531 140.655 7.57451C112.503 41.2057 90.4173 75.9468 73.5149 113.498C70.4714 119.916 62.3792 116.097 65.1143 108.931C65.4565 108.037 65.5722 107.763 65.9168 106.957C73.3487 88.7373 82.1107 70.5424 92.8681 50.667C97.0057 43.0113 94.261 33.3859 86.7255 29.1746C79.1876 24.9634 69.7195 27.7562 65.577 35.4144C39.3391 83.9136 24.2729 123.023 11.8673 174.91C-2.12409 233.449 1.31712 278.146 6.67412 305.334C14.1011 343.044 29.5239 370.198 50.0964 381.783C59.8152 387.246 70.2352 390 80.7106 390C88.957 390 97.2419 388.302 105.267 384.88C116.954 379.897 132.6 370.397 145.687 350.875" stroke="#E20953" stroke-width="2.5" stroke-linecap="round" stroke-linejoin="round"/>
</svg>
