<svg width="103" height="111" viewBox="0 0 103 111" fill="none" xmlns="http://www.w3.org/2000/svg">
<path d="M97.4507 65.3712L92.2812 70.4097C90.7926 71.8603 89.9665 73.7988 89.9665 75.8558V82.9775C89.9665 89.4134 84.5941 94.6487 77.9887 94.6487H70.6815C68.5698 94.6487 66.5814 95.4538 65.0927 96.9044L59.9215 101.943C59.3806 102.47 58.7851 102.958 58.1495 103.366C57.8249 103.59 57.4592 103.789 57.0936 103.986C55.3206 104.909 53.3859 105.371 51.4502 105.371C49.5155 105.371 47.5798 104.909 45.8069 103.986C45.4412 103.801 45.0899 103.59 44.7519 103.366C44.1153 102.958 43.5199 102.47 42.9781 101.943L37.8086 96.9044C36.32 95.4538 34.3298 94.6487 32.2189 94.6487H24.9109C18.3073 94.6487 12.934 89.4134 12.934 82.9775V75.8558C12.934 73.825 12.0945 71.8342 10.6202 70.4097L5.45068 65.3712" stroke="#E20953" stroke-width="2.5" stroke-linecap="round" stroke-linejoin="round"/>
<path d="M5.45068 45.3712L10.6202 40.3319C12.0954 38.8938 12.934 36.9014 12.934 34.8838V27.7597C12.934 21.3207 18.3073 16.0835 24.9118 16.0835H32.2189C34.3307 16.0835 36.32 15.279 37.8086 13.8279L42.979 8.78771C45.2392 6.58529 48.2432 5.37122 51.4502 5.37122C54.6581 5.37122 57.6488 6.58529 59.9224 8.78771L65.0927 13.8279C66.5814 15.2921 68.5707 16.0835 70.6815 16.0835H77.9896C84.5941 16.0835 89.9665 21.3207 89.9665 27.7597V34.8838C89.9665 36.9415 90.7926 38.8807 92.2812 40.3319L97.4507 45.3712" stroke="#E20953" stroke-width="2.5" stroke-linecap="round" stroke-linejoin="round"/>
<path fill-rule="evenodd" clip-rule="evenodd" d="M86.4507 55.3717C86.4507 74.7011 70.7806 90.3712 51.4502 90.3712C32.1208 90.3712 16.4507 74.7011 16.4507 55.3717C16.4507 36.0413 32.1208 20.3712 51.4502 20.3712C70.7806 20.3712 86.4507 36.0413 86.4507 55.3717Z" stroke="#E20953" stroke-width="2.5" stroke-linecap="round" stroke-linejoin="round"/>
</svg>
